<svg width="158" height="77" viewBox="0 0 158 77" fill="none" xmlns="http://www.w3.org/2000/svg">
<path d="M9.74409 33.7095L0 29.22L10.5489 24.3483C10.8479 9.77411 24.9287 6.61471 30.7684 7.18028C36.6081 7.7465 53.5967 18.166 46.7513 39.449C44.4188 46.702 44.9694 65.4679 72.189 63.7348C70.1445 67.5878 60.548 83.5695 29.3135 73.4028C20.6538 70.5841 8.31456 56.6301 9.74409 33.7095Z" fill="#FFBD54"/>
<path d="M98.6131 29.1017C99.468 18.7784 94.1165 9.4211 90.9818 7.26543C88.0565 5.25473 88.0461 13.9353 85.4412 18.6965C81.5739 17.0849 77.2892 16.18 72.7737 16.18C68.2667 16.18 63.9891 17.081 60.1283 18.6874C57.528 13.9236 57.515 5.25473 54.5922 7.26413C51.4601 9.4107 46.1197 18.7621 46.9596 29.0653C43.7358 33.5872 41.8545 39.0024 41.8545 44.8278C41.8545 60.6502 55.698 72.3848 72.773 72.3848C89.8494 72.3848 103.692 60.6502 103.692 44.8278C103.692 39.018 101.82 33.6165 98.6131 29.1017Z" fill="#78C0DE"/>
<path d="M97.1017 46.639C97.9007 32.475 103.31 30.517 104.021 21.8553C105.005 9.86126 113.267 1.14042 117.349 0.0664815C121.431 -1.00485 116.224 11.1673 119.883 15.2985C127.535 12.6456 132.395 14.9046 136.233 19.0567C140.073 23.21 135.061 27.1762 142.578 26.1127C145.67 25.6739 148.884 25.7772 151.574 26.4624C151.829 26.294 152.104 26.1504 152.402 26.047C154.519 25.3144 156.898 26.636 157.719 29.0029C158.029 29.8994 158.069 30.8167 157.887 31.6514C157.981 32.1084 158.02 32.5933 157.99 33.1088C157.576 40.3898 148.603 50.4179 143.029 51.1486C137.455 51.8806 131.536 50.9178 131.385 62.0706C131.184 76.925 98.3031 82.8037 90.2485 67.7231C96.1428 63.4592 96.4919 57.4564 97.1017 46.639Z" fill="black"/>
<path d="M121.798 19.7017C125.647 20.0417 128.705 17.9972 131.681 15.705C130.484 15.5574 129.162 15.5483 127.678 15.7173C125.448 11.6855 131.908 2.71049 128.385 2.84051C125.209 2.95362 117.081 7.30592 113.333 15.1947C116.053 17.022 118.218 19.8954 121.798 19.7017Z" fill="black"/>
<path d="M33.9411 30.6432C33.4815 30.5054 33.0076 30.4683 32.5363 30.5359C31.1601 30.7323 29.9971 31.8114 29.6493 33.2052L26.5621 44.7396L20.4058 34.5079C19.6335 33.2767 18.204 32.5791 16.8466 32.7729C16.3837 32.8392 15.956 33.003 15.5744 33.2617C14.7104 33.7948 14.1149 34.5976 13.8959 35.526C13.6852 36.4088 13.8439 37.3299 14.3269 38.0996L24.7405 55.5836C24.8153 55.7344 24.9317 55.9528 25.1345 56.1303C25.2053 56.2096 25.2873 56.2746 25.3796 56.3266C25.3796 56.3279 25.3796 56.3279 25.3802 56.3286L25.4725 56.4612L25.6006 56.5581C25.6467 56.5932 25.6994 56.6302 25.7592 56.6634L25.7839 56.8363L26.2234 56.9832L26.3579 57.0833L27.3545 57.2985L27.6509 57.3544L27.7992 57.333C28.0527 57.346 28.2406 57.3193 28.3491 57.3044C28.4974 57.2836 28.6911 57.2556 28.931 57.1711L29.1552 57.1392L29.3386 57.0131L30.2331 56.4385L30.4164 56.194C30.4697 56.1349 30.5471 56.0497 30.6264 55.9275C30.6888 55.8547 30.7421 55.7741 30.7817 55.6863C30.8084 55.644 30.8357 55.6005 30.8611 55.5556C30.8663 55.5472 30.8715 55.5394 30.876 55.5309C30.9631 55.4373 31.0327 55.3288 31.0821 55.2111C31.1705 55.0453 31.242 54.8484 31.2823 54.6605L36.4862 34.963C36.741 34.0665 36.6351 33.1376 36.1878 32.3484C35.7139 31.5104 34.9072 30.9019 33.9411 30.6432Z" fill="white"/>
<path d="M72.5946 30.5053C64.3028 30.6503 57.6271 37.716 57.7142 46.2731C57.9274 54.8938 64.6974 61.5806 73.127 61.4947H73.1361C77.5729 61.4167 81.164 60.0165 84.1089 57.214C84.8259 56.5366 85.2172 55.6746 85.2393 54.7222C85.2692 53.4987 84.6809 52.4268 84.1102 51.8202C83.4958 51.1162 82.4173 50.7092 81.2127 50.73C80.0029 50.7515 78.8861 51.2046 78.1288 51.9769C77.1569 52.7063 75.466 53.1932 73.7894 53.2231C73.5528 53.227 73.3188 53.2212 73.0945 53.2069C71.3438 53.0879 69.3552 52.2109 68.3684 51.1214L68.2885 51.0408C67.8393 50.6306 67.4401 50.0488 67.1274 49.3597L83.672 49.071C85.827 49.0333 87.4886 47.6942 87.7617 45.7953C87.826 45.5567 87.8377 45.296 87.8325 44.9957L87.8241 44.6388C87.1844 36.306 80.7791 30.3623 72.5946 30.5053ZM79.3932 41.8818L66.7777 42.1021C67.641 40.3944 69.5509 38.5722 72.7116 38.3408C75.951 38.569 78.2516 40.2494 79.3932 41.8818Z" fill="white"/>
<path d="M122.868 44.2109C125.123 44.4463 127.225 42.7651 127.457 40.5399C127.693 38.2744 126.019 36.2383 123.725 35.9991L123.51 35.9763L124.209 29.2766C124.449 26.974 122.834 24.9822 120.532 24.7416C118.199 24.4978 116.183 26.1114 115.943 28.4133L115.243 35.1124L114.811 35.0675C112.508 34.8276 110.515 36.4425 110.275 38.7457C110.039 41.0093 111.688 43.0434 113.953 43.2807L114.385 43.3255L112.929 57.2646C112.518 61.1963 115.383 64.7301 119.316 65.141C121.618 65.3815 123.61 63.7673 123.852 61.4635C124.054 59.5301 122.981 57.8158 121.298 57.1476L122.651 44.1875L122.868 44.2109Z" fill="white"/>
</svg>
